<?xml version="1.0" encoding="utf-8"?>
<!-- Generator: Adobe Illustrator 25.3.1, SVG Export Plug-In . SVG Version: 6.00 Build 0)  -->
<svg version="1.1" xmlns="http://www.w3.org/2000/svg" xmlns:xlink="http://www.w3.org/1999/xlink" x="0px" y="0px"
	 viewBox="0 0 2016.07 587.17" style="enable-background:new 0 0 2016.07 587.17;" xml:space="preserve">
<style type="text/css">
	.st0{fill:none;}
	.st1{fill:#FFFFFF;}
	.st2{fill:#F46C63;}
</style>
<g id="Layer_1">
	<g>
		<path d="M559.82,586.74H397.7L496.31,0.27h162.11L559.82,586.74z"/>
		<path d="M683.49,0.27h234.82c66.85,0,114.48,37.84,101.11,116.66l-8.36,47.3c-10.86,69.37-57.66,90.65-79.39,96.96
			c24.23,8.67,69.36,37.05,58.5,108.78l-12.53,77.25c-15.88,94.59-52.65,139.52-133.7,139.52H584.89L683.49,0.27z M789.62,332.92
			l-23.4,137.95h19.22c15.88,0,19.22-7.09,21.73-23.65l15.04-89.86c2.51-16.55-3.34-24.44-17.55-24.44H789.62z M826.39,112.2
			L808,223.35h14.21c12.53,0,19.22-7.88,21.73-23.65l10.86-65.43c2.51-14.98,0-22.07-15.88-22.07H826.39z"/>
		<path d="M1140.2,586.74H978.08l98.61-586.47h162.11L1140.2,586.74z"/>
		<path d="M1328.7,586.74h-162.11l98.6-586.47h242.34c54.32,0,107.8,34.68,94.43,109.57l-10.03,58.33
			c-10.03,59.91-38.44,88.29-74.37,100.9c26.74,12.61,50.98,41.78,43.45,92.23l-30.08,178.94c-3.34,21.28-1.67,33.11,1.67,42.57
			l-0.84,3.94h-159.61c-5.85-6.31-9.19-20.5-5.85-42.57l27.58-164.75c2.51-12.61,0.84-21.28-15.04-21.28h-11.7L1328.7,586.74z
			 M1388.03,232.02h15.88c10.87,0,16.71-7.09,18.38-20.5l13.37-78.04c2.51-14.98-0.84-21.28-14.21-21.28h-13.37L1388.03,232.02z"/>
		<path d="M1918.43,587.17h-159.88h-25.07c-124.51,0-176.32-67.79-160.44-162.38L1644.21,0h167.96l-69.51,416.11
			c-2.51,15.77,1.67,23.65,14.21,23.65c10.86,0,18.38-7.88,20.89-23.65L1846.43,0h169.64l-71.18,424.78L1918.43,587.17z"/>
		<path d="M94.65,0h162.12h25.07c124.51,0,176.32,67.79,160.44,162.38l-70.42,424.78H203.9l68.75-416.11
			c2.51-15.77-1.67-23.65-14.21-23.65c-10.86,0-18.38,7.88-20.89,23.65l-67.91,416.11H0l70.42-424.78L94.65,0z"/>
	</g>
</g>
<g id="Layer_2">
</g>
<g id="Layer_3">
</g>
<g id="Layer_4">
</g>
<g id="Layer_5">
</g>
</svg>
