<?xml version="1.0" encoding="utf-8"?>
<!-- Generator: Adobe Illustrator 26.0.2, SVG Export Plug-In . SVG Version: 6.00 Build 0)  -->
<svg version="1.1" id="Layer_1" xmlns="http://www.w3.org/2000/svg" xmlns:xlink="http://www.w3.org/1999/xlink" x="0px" y="0px"
	 viewBox="0 0 555.2 555.2" style="enable-background:new 0 0 555.2 555.2;" xml:space="preserve">
<style type="text/css">
	.st0{fill:#231F20;}
</style>
<path class="st0" d="M277.6,10.2c-147.7,0-267.4,119.7-267.4,267.4S129.9,545,277.6,545S545,425.3,545,277.6S425.3,10.2,277.6,10.2z
	 M390.2,389.4l-11.9,73.2h-72H295c-56.1,0-79.4-30.5-72.3-73.2L250,226l9.3-55.8c1.1-7.1-0.8-10.7-6.4-10.7c-4.9,0-8.3,3.5-9.4,10.7
	l-30.6,187.5h-76.4l31.7-191.4l10.9-73.2h73h11.3c56.1,0,79.4,30.5,72.3,73.2l-5.3,31.7l-31.3,187.5c-1.1,7.1,0.8,10.6,6.4,10.6
	c4.9,0,8.3-3.5,9.4-10.6l31-187.5h76.4L390.2,389.4z"/>
<g id="Layer_2_00000140696966250170299540000009922549412888019598_">
</g>
<g id="Layer_3">
</g>
<g id="Layer_4">
</g>
<g id="Layer_5">
</g>
</svg>
